<?xml version="1.0" encoding="utf-8"?>
<!-- Generator: Adobe Illustrator 24.1.3, SVG Export Plug-In . SVG Version: 6.00 Build 0)  -->
<!DOCTYPE svg PUBLIC "-//W3C//DTD SVG 1.0//EN" "http://www.w3.org/TR/2001/REC-SVG-20010904/DTD/svg10.dtd" [
	<!ENTITY ns_extend "http://ns.adobe.com/Extensibility/1.0/">
	<!ENTITY ns_ai "http://ns.adobe.com/AdobeIllustrator/10.0/">
	<!ENTITY ns_graphs "http://ns.adobe.com/Graphs/1.0/">
	<!ENTITY ns_vars "http://ns.adobe.com/Variables/1.0/">
	<!ENTITY ns_imrep "http://ns.adobe.com/ImageReplacement/1.0/">
	<!ENTITY ns_sfw "http://ns.adobe.com/SaveForWeb/1.0/">
	<!ENTITY ns_custom "http://ns.adobe.com/GenericCustomNamespace/1.0/">
	<!ENTITY ns_adobe_xpath "http://ns.adobe.com/XPath/1.0/">
]>
<svg version="1.0" xmlns:x="&ns_extend;" xmlns:i="&ns_ai;" xmlns:graph="&ns_graphs;"
	 xmlns="http://www.w3.org/2000/svg" xmlns:xlink="http://www.w3.org/1999/xlink" x="0px" y="0px" width="768px" height="512.6px"
	 viewBox="0 0 768 512.6" style="enable-background:new 0 0 768 512.6;" xml:space="preserve">
<style type="text/css">
	.st0{fill:#010202;}
	.st1{fill:#FECB39;}
	.st2{fill:#E5292C;}
	.st3{fill:#2CACE2;}
</style>
<metadata>
	<sfw  xmlns="&ns_sfw;">
		<slices></slices>
		<sliceSourceBounds  bottomLeftOrigin="true" height="937.8" width="3215.6" x="-3969.6" y="-1093.1"></sliceSourceBounds>
		<optimizationSettings>
			<targetSettings  fileFormat="PNG8Format" targetSettingsID="0">
				
					<PNG8Format  autoReduce="false" ditherAlgorithm="diffusion" ditherPercent="100" interlaced="false" matteColor="#FFFFFF" noMatteColor="false" numColors="256" reductionAlgorithm="perceptual" rolloverMasterPalette="false" transparency="false" webShiftPercent="0">
					<colorTable  isExact="false"></colorTable>
					<lockedColors></lockedColors>
					<colorShiftEntries></colorShiftEntries>
				</PNG8Format>
			</targetSettings>
		</optimizationSettings>
	</sfw>
</metadata>
<g id="Spreadshirt_x5F_MAHINA_x5F_JOURNEY">
</g>
<g id="Spreadshirt_x5F_MAHINA_x5F_ACCELERATOR">
</g>
<g id="Spreadshirt_x5F_MAHINA_x5F_eu">
</g>
<g id="MAHINA_JOURNEY">
	<g>
		<g>
			<g>
				<g>
					<g>
						<path class="st0" d="M242.1,440.1c0.3-1.6,1.9-2.8,3.6-2.6c0,0,0.6,0.1,2.7-0.2c4.4-0.5,5.7-3.8,5.7-3.8
							c0.6-1.5,1.4-4.1,1.7-5.7l2.4-11.6c0.3-1.6,1.9-3.1,3.6-3.3l11.5-1.4c1.6-0.2,2.7,1,2.4,2.6l-3.6,17.4
							c-0.3,1.6-1.3,4.1-2.1,5.5c0,0-5.9,10.3-16.9,11.6c-4.1,0.5-9.8,0.2-9.8,0.2c-1.6-0.1-2.7-1.5-2.4-3.1L242.1,440.1z"/>
					</g>
					<g>
						<path class="st0" d="M325.3,417.3c0,6.1-2.4,12.6-6.4,17.1c-4.3,4.8-11.7,8-21.5,9.2c-9,1.1-15.4-2.3-15.4-2.3
							c-1.5-0.8-3.3-2.6-4-4.1c0,0-0.6-1.3-0.6-4.3c0-6.4,2.6-13.1,6.8-17.4c4.4-4.6,11.8-7.6,21.1-8.7
							C318.7,405.1,325.3,408.6,325.3,417.3z M296.7,422.5c-0.9,1.6-1.6,4.5-1.6,6.7c0,3.2,1.5,4.6,4.5,4.3c2.8-0.3,4.4-2.4,4.4-2.4
							c1-1.3,2.3-3.7,2.8-5.2c0,0,0.7-1.9,0.7-3.6c0-2.8-1.7-4.1-4.8-3.7C300.1,418.8,297.9,420.3,296.7,422.5z"/>
					</g>
					<g>
						<path class="st0" d="M348,402.5c1.6-0.2,2.7,1,2.4,2.6l-3.2,15.6c-0.3,1.6-0.7,3.7-0.9,4.7c0,0,0,0,0,0.5
							c0,1.2,1.1,1.9,2.9,1.6c1.3-0.2,2.5-0.8,3.2-1.6c0.5-0.6,0.5-0.6,0.5-0.6c0.4-1.4,0.9-3.8,1.3-5.5l3.2-15.6
							c0.3-1.6,1.9-3.1,3.6-3.3l11.5-1.4c1.6-0.2,2.7,1,2.4,2.6l-3.2,15.2c-0.3,1.6-1,4.2-1.4,5.8c0,0-0.7,2.6-1.5,3.7
							c-0.7,1.2-2.3,3-3.6,4.1c0,0-5,4.4-18.2,6.3c-12.1,1.7-18.6-0.8-18.6-6.5c0-1.4,0.3-3,0.3-3c0.3-1.6,0.8-4.3,1.1-5.9l3.1-14.7
							c0.3-1.6,2-3.1,3.6-3.3L348,402.5z"/>
					</g>
					<g>
						<path class="st0" d="M403.5,429.9c-1.6,0.2-3.7-0.8-4.5-2.2l-2.9-4.9c-0.8-1.4-1.8-1.3-2.2,0.4l-1.1,5.2
							c-0.3,1.6-2,3.1-3.6,3.3l-11.5,1.4c-1.6,0.2-2.7-1-2.4-2.6l6-29c0.3-1.6,2-3.1,3.6-3.3l26.8-3.2c1.6-0.2,4.3-0.4,6-0.4
							c0,0,3.4-0.1,5.2,1.3c1.4,1.1,2.2,3,2.2,5.3c0,3-1.4,6.1-3.8,8.7c-2.6,2.7-6.4,4-6.4,4c-1.6,0.5-2.1,2.1-1.2,3.5l5.4,8.1
							c0.9,1.4,0.3,2.7-1.3,2.9L403.5,429.9z M398.7,412.6c1.5-0.2,4-0.6,5.6-1c0,0,0.6-0.1,1.7-1.4c0.8-1,1.2-2.2,1.2-3.5
							c0-1.6-0.3-1.6-0.3-1.6c-1.6-0.1-4.3,0-6,0.2l-0.4,0c-1.6,0.2-3.3,1.7-3.6,3.3l-0.3,1.4C396.3,411.6,397.2,412.8,398.7,412.6z
							"/>
					</g>
					<g>
						<path class="st0" d="M456.8,423.5c-1.6,0.2-3.7-0.8-4.5-2.2l-5.5-9.1c-0.9-1.4-1.8-1.2-2.2,0.4l-2,9.8
							c-0.3,1.6-1.9,3.1-3.6,3.3l-10.6,1.3c-1.6,0.2-2.7-1-2.4-2.6l6-29c0.3-1.6,2-3.1,3.6-3.3l11.5-1.4c1.6-0.2,3.6,0.9,4.3,2.3
							l4,8.1c0.7,1.5,1.6,1.4,2-0.3l1.8-8.7c0.3-1.6,1.9-3.1,3.6-3.3l10.6-1.3c1.6-0.2,2.7,1,2.4,2.6l-6,29c-0.3,1.6-2,3.1-3.6,3.3
							L456.8,423.5z"/>
					</g>
					<g>
						<path class="st0" d="M478.9,420.9c-1.6,0.2-2.7-1-2.4-2.6l6-29c0.3-1.6,2-3.1,3.6-3.3l33-4c1.6-0.2,2.7,1,2.4,2.6l-1.1,5.3
							c-0.3,1.6-1.9,3.1-3.6,3.3l-15.6,1.9c-1.6,0.2-3.1,1.1-3.3,2c-0.2,0.9,1,1.5,2.6,1.3l15.6-1.9c1.6-0.2,2.7,1,2.4,2.6l-0.5,2.5
							c-0.3,1.6-1.9,3.1-3.6,3.3l-15.6,1.9c-1.6,0.2-3.1,1-3.3,1.8c-0.2,0.8,1,1.3,2.7,1.1l15.6-1.9c1.6-0.2,2.7,1,2.4,2.6l-0.7,3.3
							c-0.3,1.6-1.9,3.1-3.6,3.3L478.9,420.9z"/>
					</g>
					<g>
						<path class="st0" d="M534.6,414.2c-1.6,0.2-2.7-1-2.4-2.6l0.9-4.2c0.3-1.6,0.1-4.2-0.6-5.7l-7.4-17.5
							c-0.6-1.5,0.2-2.9,1.8-3.1l13.6-1.6c1.6-0.2,3.3,1,3.7,2.6l1,4.2c0.4,1.6,1.4,1.7,2.2,0.3l3.3-5.8c0.8-1.4,2.8-2.8,4.5-3
							l13-1.6c1.6-0.2,2.2,0.7,1.2,2L553,400c-1,1.3-2.1,3.7-2.4,5.3l-0.9,4.2c-0.3,1.6-2,3.1-3.6,3.3L534.6,414.2z"/>
					</g>
				</g>
			</g>
			<g>
				<g>
					<g>
						<path class="st0" d="M227.4,390.3c-1.6,0.2-2.7-1-2.4-2.6l5.4-25.8c0.3-1.6,0-1.7-0.8-0.3l-14.3,27.6c-0.8,1.5-2.7,2.8-4.4,3
							l-10.9,1.3c-1.6,0.2-3.2-1-3.4-2.6l-3.4-23.4c-0.2-1.6-0.7-1.6-1,0l-5.1,24.8c-0.3,1.6-1.9,3.1-3.6,3.3l-23.2,2.8
							c-1.6,0.2-2.7-1-2.4-2.6l11.6-55.7c0.3-1.6,1.9-3.1,3.6-3.3l32.7-4c1.6-0.2,3.1,1,3.3,2.6l2.6,22.8c0.2,1.6,0.9,1.8,1.7,0.3
							l12.9-25.7c0.7-1.5,2.7-2.8,4.3-3l33.2-4c1.6-0.2,2.7,1,2.4,2.6l-11.6,55.7c-0.3,1.6-1.9,3.1-3.6,3.3L227.4,390.3z"/>
					</g>
					<g>
						<path class="st0" d="M318.2,379.3c-1.6,0.2-3.1-1-3.2-2.6l-0.1-1.7c-0.1-1.6-1.6-2.8-3.2-2.6l-14.1,1.7
							c-1.6,0.2-3.5,1.6-4.2,3.1l-1.3,2.8c-0.7,1.5-2.6,2.9-4.2,3.1l-25.5,3.1c-1.6,0.2-2.4-0.8-1.6-2.3l29.3-58.5
							c0.7-1.5,2.7-2.8,4.3-3l42.9-5.2c1.6-0.2,3.1,1,3.3,2.6l5.5,53.3c0.2,1.6-1,3.1-2.7,3.3L318.2,379.3z M312.7,339.8
							c-0.2-1.6-1-1.8-1.7-0.3l-7.8,14.9c-0.8,1.5,0,2.5,1.6,2.3l6.7-0.8c1.6-0.2,2.8-1.7,2.6-3.3L312.7,339.8z"/>
					</g>
					<g>
						<path class="st0" d="M400.4,369.3c-1.6,0.2-2.7-1-2.4-2.6l2.7-13.2c0.3-1.6-0.7-2.8-2.4-2.6l-9.5,1.2
							c-1.6,0.2-3.3,1.7-3.6,3.3l-2.7,13.2c-0.3,1.6-1.9,3.1-3.6,3.3l-24.9,3c-1.6,0.2-2.7-1-2.4-2.6l11.6-55.7
							c0.3-1.6,1.9-3.1,3.6-3.3l24.9-3c1.6-0.2,2.7,1,2.4,2.6l-3.3,15.9c-0.3,1.6,0.7,2.8,2.4,2.6l9.5-1.2c1.6-0.2,3.3-1.7,3.6-3.3
							l3.3-15.9c0.3-1.6,1.9-3.1,3.6-3.3l24.9-3c1.6-0.2,2.7,1,2.4,2.6l-11.6,55.7c-0.3,1.6-1.9,3.1-3.6,3.3L400.4,369.3z"/>
					</g>
					<g>
						<path class="st0" d="M444.6,363.9c-1.6,0.2-2.7-1-2.4-2.6l11.6-55.7c0.3-1.6,1.9-3.1,3.6-3.3l24.9-3c1.6-0.2,2.7,1,2.4,2.6
							l-11.6,55.7c-0.3,1.6-1.9,3.1-3.6,3.3L444.6,363.9z"/>
					</g>
					<g>
						<path class="st0" d="M537.6,352.6c-1.6,0.2-3.7-0.8-4.5-2.2l-12.2-19.9c-0.9-1.4-1.8-1.2-2.2,0.4l-4.5,21.7
							c-0.3,1.6-1.9,3.1-3.6,3.3l-23.2,2.8c-1.6,0.2-2.7-1-2.4-2.6l11.6-55.7c0.3-1.6,1.9-3.1,3.6-3.3l24.9-3
							c1.6-0.2,3.6,0.8,4.3,2.3l9.2,18.3c0.7,1.5,1.6,1.4,2-0.3l4.1-19.9c0.3-1.6,1.9-3.1,3.6-3.3l23.2-2.8c1.6-0.2,2.7,1,2.4,2.6
							l-11.6,55.7c-0.3,1.6-1.9,3.1-3.6,3.3L537.6,352.6z"/>
					</g>
					<g>
						<path class="st0" d="M625.9,341.8c-1.6,0.2-3.1-1-3.2-2.6l-0.1-1.7c-0.1-1.6-1.6-2.8-3.2-2.6l-14.1,1.7
							c-1.6,0.2-3.5,1.6-4.2,3.1l-1.3,2.8c-0.7,1.5-2.6,2.9-4.2,3.1l-25.5,3.1c-1.6,0.2-2.4-0.8-1.6-2.3l29.3-58.5
							c0.7-1.5,2.7-2.8,4.3-3l42.9-5.2c1.6-0.2,3.1,1,3.3,2.6l5.5,53.3c0.2,1.6-1,3.1-2.7,3.3L625.9,341.8z M620.4,302.4
							c-0.2-1.6-1-1.8-1.7-0.3L611,317c-0.8,1.5,0,2.5,1.6,2.3l6.7-0.8c1.6-0.2,2.8-1.7,2.6-3.3L620.4,302.4z"/>
					</g>
				</g>
			</g>
		</g>
		<g>
			<path class="st1" d="M458.4,96.9c30.5-14.8,67.4-2.7,83.2,27.5c15.8,30.2,4.6,67.4-25,84c12.2,0.5,24.6-2.1,36.2-8.2
				c35.5-18.5,49.2-62.3,30.7-97.7s-62.3-49.2-97.7-30.7C474.2,77.9,465,86.6,458.4,96.9z"/>
			<g>
				<g>
					<path class="st0" d="M313.4,239.5c-0.5,0.2-1,0.4-1.4,0.6c-23.6,12.2-47.1,24.5-70.7,36.7c-1.1,0.6-2.2,1.1-3.4,1.3
						c-4.5,0.9-8.3-0.2-11.2-3.8c-3.9-4.8-3-11.7,1.7-15.4c0.8-0.6,1.7-1.2,2.6-1.6c23.6-12.3,47.2-24.5,70.8-36.8
						c0.5-0.2,0.9-0.5,1.3-0.8c1-0.5,1.9-0.9,2.9-1.4c3.3-1.7,6.4-3.6,9.5-5.6c2.2-1.4,4.3-3,6.5-4.5c2.6-1.8,5.3-3.6,7.9-5.5
						c2.6-1.8,5.2-3.5,8-5c4.9-2.6,9.9-4.6,15.2-6.2c1.4-0.4,2.9-0.8,4.4-1.2c7.7,14.7,15.3,29.5,23,44.2c0.5,1,1,1.9,1.5,2.9
						c-3.1,2.7-6.3,5.1-9.7,7.3c-4.5,2.9-9.1,5.5-14.1,7.3c-4.9,1.8-9.7,3.6-14.6,5.4c-4.3,1.6-8.5,3.2-12.5,5.3
						c-1.5,0.8-2.9,1.5-4.4,2.3c-0.5,0.2-1,0.4-1.4,0.6c-23.6,12.2-47.1,24.4-70.7,36.7c-1.3,0.7-2.6,1.3-4,1.5
						c-5.1,0.9-9.8-1.8-11.8-5.8c-2.1-4-1.5-9.2,2.1-12.9c0.9-1,2-1.7,3.3-2.3c23.6-12.3,47.3-24.5,70.9-36.8
						c0.5-0.2,0.9-0.5,1.3-0.8c0.2-0.1,0.4-0.2,0.6-0.3c1.5-0.9,2.9-1.8,4.4-2.8c2.2-1.4,4.5-2.8,6.7-4.2c3.1-1.9,6.1-3.9,9.2-5.8
						c3.2-2,6.4-4,9.6-6c0.8-0.5,1.6-1,2.4-1.5c0.1,0,0.1-0.1,0.2-0.1c-0.1,0-0.2,0-0.3,0c-0.1,0-0.2,0.1-0.4,0.1
						c-1.6,0.7-3.3,1.3-4.9,2c-2.3,1-4.6,1.9-6.9,2.9c-3.6,1.5-7.2,3-10.9,4.5c-2.4,1-4.9,2-7.3,3
						C316.9,237.9,315.1,238.7,313.4,239.5z"/>
				</g>
				<g>
					<path class="st0" d="M435.1,192.3c-1.9-1.6-3.8-3.2-5.2-5.3c-1.1-1.5-2-3-2.8-4.8c-1-2.4-1.6-4.8-1.9-7.3
						c-0.1-0.7-0.1-1.4-0.2-2.1c0.3-0.1,0.7-0.2,1-0.3c0.6,1.1,1.2,2.1,1.8,3.2c0.2,0.4,0.4,0.8,0.6,1.1c0,0.1,0.2,0.1,0.2,0.1
						c0.1,0,0.1-0.1,0.1-0.2c-0.1-1.3-0.4-2.6-0.4-3.8c0-7.3,2.8-13.3,8.7-17.7c9.5-7.1,22.6-5.3,29.8,3.8
						c7.5,9.4,5.5,22.5-2.9,29.6c-9.2,7.8-21.9,6.5-29.3-0.9c-0.2-0.2-0.4-0.4-0.5-0.5c0,0-0.2-0.1-0.2,0c0,0-0.1,0.2-0.1,0.2
						c0.4,0.8,0.9,1.7,1.3,2.5c0.3,0.6,0.6,1.2,0.9,1.9C435.6,191.9,435.3,192.1,435.1,192.3z"/>
				</g>
				<g>
					<path class="st0" d="M416.7,142.5c2.5,4.7,7.9,14.5,8,14.7c0.6-0.3,4.7-2.4,6.2-3.2c9.4-4.9,34.2-17.7,37.1-19.2
						c3.6-1.9,5.4-5.4,4.7-9.4c-0.7-4.4-4.5-7.3-8.6-7.4c-1.6,0-3.1,0.4-4.5,1.1c-9.5,5.1-19,10.3-28.4,15.4
						C426.7,137,417,142.3,416.7,142.5z"/>
				</g>
				<path class="st2" d="M387.7,174.3c0.7-0.2,1.3-0.4,2-0.6c1.6-0.3,3.1-0.8,4.7-0.8c0.2,0,0.4,0,0.6,0c0.2,0,0.4,0,0.6,0.1
					c-0.2,0.1-0.4,0.2-0.6,0.3c-3.1,1.2-5.6,3.2-7.6,5.8c-0.5,0.6-1,1.3-1.4,2c-0.9,1.4-2.1,2.4-3.4,3.3c-2.2,1.4-4.6,2.1-7.1,2.5
					c-5.8,0.8-11.7,1.6-17.4,3.3c-0.2,0.1-0.5,0.2-0.7,0.3c-1.5,0.4-2.9,0.7-4.4,1.2c-5.2,1.6-10.3,3.7-15.2,6.2
					c-2.8,1.5-5.4,3.2-8,5c-2.6,1.8-5.2,3.6-7.9,5.5c-2.2,1.5-4.3,3-6.5,4.5c-3.1,2-6.2,3.9-9.5,5.6c-1,0.5-1.9,1-2.9,1.4
					c-2.4-4.6-4.7-9.1-7.1-13.7c0-0.1-0.1-0.2-0.1-0.2c-0.2-0.5-0.2-0.6,0.3-0.8c1.1-0.4,2.2-0.7,3.3-1.1c2.9-1,5.8-1.9,8.7-2.9
					c2.9-1,5.7-1.9,8.6-2.9c3.5-1.2,7-2.3,10.6-3.5c3.4-1.1,6.9-2.3,10.3-3.4c3.4-1.1,6.8-2.3,10.2-3.4c3.9-1.3,7.9-2.6,11.8-3.9
					c3.4-1.1,6.8-2.3,10.2-3.4c3.9-1.3,7.9-2.6,11.8-3.9C383.6,175.9,385.6,175.1,387.7,174.3z"/>
				<path class="st2" d="M313.4,239.5c1.8-0.8,3.5-1.6,5.3-2.3c2.4-1,4.9-2,7.3-3c3.6-1.5,7.2-3,10.9-4.5c2.3-1,4.6-2,6.9-2.9
					c1.6-0.7,3.3-1.3,4.9-2c0.1,0,0.2-0.1,0.4-0.1c0.1,0,0.2,0,0.3,0c-0.1,0-0.1,0.1-0.2,0.1c-0.8,0.5-1.6,1-2.4,1.5
					c-3.2,2-6.4,4-9.6,6c-3.1,1.9-6.1,3.9-9.2,5.8c-2.2,1.4-4.5,2.8-6.7,4.2c-1.5,0.9-2.9,1.8-4.4,2.8c-0.2,0.1-0.4,0.2-0.6,0.3
					C315.3,243.3,314.3,241.4,313.4,239.5z"/>
				<path class="st3" d="M427.7,183.7L427.7,183.7c-0.2-0.5-0.5-0.9-0.7-1.4c-1-2.4-1.6-4.8-1.9-7.3c-0.1-0.7-0.1-1.4-0.2-2.1
					c-0.6,0.1-1.1,0.2-1.7,0.3c-1.3,0.2-2.1-0.6-1.8-1.9c0.4-1.7,0.8-3.3,1.2-5c-0.2-0.4-0.3-0.9-0.5-1.3c-0.8-1.5-2.6-3.6-2.4-4.5
					c0.2-0.9,3.7-2.5,5.1-3.3c-0.1-0.2-5.5-10-8-14.7c-2.7,1.4-10.2,5.5-16,8.6c-12.9,6.7-0.3,18.9-5,21.9c-0.4,0.2-0.4,0.2-0.6,0.3
					c-3.1,1.2-5.6,3.2-7.6,5.8c-0.5,0.6-1,1.3-1.4,2c-0.9,1.4-2.1,2.4-3.4,3.3c-2.2,1.4-4.6,2.1-7.1,2.5c-5.8,0.8-11.7,1.6-17.4,3.3
					c-0.2,0.1-0.5,0.2-0.7,0.3c2,3.9,7.2,13.8,12.3,23.6"/>
				<g>
					<path class="st0" d="M455.1,216.4c-2.4-4.8-7.3-14.8-7.4-15.1c0.6-0.3,4.7-2.5,6.2-3.2c9.4-4.9,34.1-17.8,37.1-19.3
						c3.6-1.8,7.5-1.3,10.4,1.5c3.2,3.2,3.4,7.9,1.1,11.3c-0.9,1.3-2.1,2.3-3.5,3c-9.7,4.8-19.3,9.6-29,14.4
						C465.3,211.4,455.4,216.3,455.1,216.4z"/>
				</g>
				<path class="st3" d="M427.7,183.7L427.7,183.7c0.2,0.5,0.5,0.9,0.8,1.4c1.4,2.2,3,4.1,4.9,5.8c0.5,0.5,1.1,0.9,1.6,1.3
					c-0.4,0.4-0.8,0.8-1.2,1.2c-0.9,1-0.7,2.1,0.5,2.6c1.6,0.7,3.2,1.3,4.8,1.9c0.3,0.4,0.6,0.8,0.8,1.2c0.8,1.5,1.5,4.2,2.3,4.6
					c0.8,0.4,4.1-1.6,5.6-2.2c0.1,0.2,5,10.3,7.4,15.1c-2.8,1.4-10.4,5.2-16.2,8.2c-12.9,6.7-15.7-10.6-20.8-8.5
					c-0.4,0.2-0.4,0.2-0.6,0.3c-2.8,1.8-5.8,2.7-9.1,2.9c-0.8,0-1.6,0-2.5,0c-1.6-0.1-3.2,0.3-4.7,0.9c-2.4,0.9-4.3,2.5-6.1,4.4
					c-4,4.3-8,8.6-12.7,12.3c-0.2,0.2-0.4,0.3-0.7,0.4c-2-3.9-7.1-13.8-12.3-23.6"/>
				<path class="st2" d="M412.3,221.8c0.5-0.4,1.1-0.9,1.6-1.3c1.1-1.1,2.4-2,3.4-3.4c0.1-0.2,0.3-0.3,0.4-0.5
					c0.1-0.2,0.2-0.4,0.3-0.6c-0.2,0.1-0.4,0.2-0.6,0.3c-2.8,1.8-5.8,2.7-9.1,2.9c-0.8,0-1.6,0-2.5,0c-1.6-0.1-3.2,0.3-4.7,0.9
					c-2.4,0.9-4.3,2.5-6.1,4.4c-4,4.3-8,8.6-12.7,12.3c-0.2,0.2-0.4,0.3-0.7,0.4c-1.1,1-2.3,2-3.5,2.9c-4.4,3.3-8.9,6.3-13.8,8.8
					c-2.8,1.4-5.7,2.6-8.7,3.7c-3,1.1-6,2.2-9,3.3c-2.5,0.9-4.9,1.8-7.4,2.8c-3.4,1.4-6.8,2.8-10,4.6c-1,0.5-1.9,1-2.8,1.5
					c2.4,4.6,4.7,9.1,7.1,13.7c0,0.1,0.1,0.2,0.1,0.2c0.3,0.5,0.4,0.5,0.8,0.2c0.9-0.7,1.9-1.4,2.8-2.1c2.5-1.8,4.9-3.6,7.4-5.5
					c2.4-1.8,4.9-3.6,7.3-5.4c3-2.2,6-4.4,8.9-6.6c2.9-2.2,5.8-4.3,8.7-6.5c2.9-2.1,5.8-4.2,8.7-6.3c3.3-2.5,6.6-4.9,10-7.4
					c2.9-2.1,5.8-4.2,8.7-6.3c3.3-2.5,6.6-4.9,10-7.4C408.7,224.3,410.5,223.1,412.3,221.8z"/>
				<path class="st2" d="M425.9,172.6c-0.3,0.1-0.7,0.2-1,0.3c-0.6,0.1-1.1,0.2-1.7,0.3c-1.3,0.2-2.1-0.6-1.8-1.9
					c0.4-1.7,0.8-3.3,1.2-5C423.7,168.3,424.8,170.5,425.9,172.6z"/>
				<path class="st2" d="M435.8,191.6c-0.3,0.2-0.6,0.4-0.8,0.6c-0.4,0.4-0.8,0.8-1.2,1.2c-0.9,1-0.7,2.1,0.5,2.6
					c1.6,0.7,3.2,1.3,4.8,1.9C438,195.8,436.9,193.7,435.8,191.6z"/>
			</g>
		</g>
		<path class="st0" d="M215.3,300.3c-12.7,6.3-25.2,13-37.1,20.5c-11.9,7.5-23.4,15.7-33.4,25.2c-2.5,2.4-4.9,4.9-7.2,7.4
			c-2.2,2.6-4.4,5.2-6.3,8c-3.8,5.5-6.8,11.5-7.8,17.6c-1.1,6.1,0.1,12.2,3.7,17.2c3.5,5,9.2,8.7,15.4,11.1c6.2,2.4,13,3.6,19.9,3.8
			c3.4,0.1,6.9,0,10.3-0.3c3.5-0.4,7.1-0.8,10.7-1.3l42.8-5.1l85.6-10.2l342.2-40.8l-341.7,45.3l-85.4,11.3l-42.7,5.7l-10.7,1.4
			c-3.7,0.5-7.4,0.7-11.2,0.7c-7.5,0-15.1-1-22.4-3.5c-3.6-1.3-7.2-2.9-10.5-5.1c-3.3-2.2-6.4-4.8-9-8.1c-1.3-1.6-2.4-3.4-3.3-5.3
			c-0.9-1.9-1.6-3.9-2.1-5.9c-0.5-2-0.8-4.1-0.9-6.2c0-2.1,0-4.2,0.3-6.2c0.5-4,1.7-7.9,3.2-11.5c1.5-3.6,3.4-7,5.4-10.3
			c2.1-3.2,4.3-6.3,6.7-9.2c2.4-2.9,4.9-5.7,7.5-8.3c10.4-10.6,22.1-19.7,34.2-27.9c12.1-8.3,24.7-15.6,37.5-22.6
			c3.4-1.8,7.6-0.6,9.5,2.8c1.8,3.4,0.6,7.6-2.8,9.5C215.5,300.2,215.4,300.2,215.3,300.3L215.3,300.3z"/>
	</g>
</g>
<g id="MAHINA_ACCELERATOR">
</g>
<g id="MAHINA.eu">
</g>
</svg>
