<?xml version="1.0" encoding="utf-8"?>
<!-- Generator: Adobe Illustrator 24.1.3, SVG Export Plug-In . SVG Version: 6.00 Build 0)  -->
<!DOCTYPE svg PUBLIC "-//W3C//DTD SVG 1.1//EN" "http://www.w3.org/Graphics/SVG/1.1/DTD/svg11.dtd" [
	<!ENTITY ns_extend "http://ns.adobe.com/Extensibility/1.0/">
	<!ENTITY ns_ai "http://ns.adobe.com/AdobeIllustrator/10.0/">
	<!ENTITY ns_graphs "http://ns.adobe.com/Graphs/1.0/">
	<!ENTITY ns_vars "http://ns.adobe.com/Variables/1.0/">
	<!ENTITY ns_imrep "http://ns.adobe.com/ImageReplacement/1.0/">
	<!ENTITY ns_sfw "http://ns.adobe.com/SaveForWeb/1.0/">
	<!ENTITY ns_custom "http://ns.adobe.com/GenericCustomNamespace/1.0/">
	<!ENTITY ns_adobe_xpath "http://ns.adobe.com/XPath/1.0/">
]>
<svg version="1.1" id="Layer_1" xmlns:x="&ns_extend;" xmlns:i="&ns_ai;" xmlns:graph="&ns_graphs;"
	 xmlns="http://www.w3.org/2000/svg" xmlns:xlink="http://www.w3.org/1999/xlink" x="0px" y="0px" width="540.6px" height="396.9px"
	 viewBox="0 0 540.6 396.9" style="enable-background:new 0 0 540.6 396.9;" xml:space="preserve">
<style type="text/css">
	.st0{fill:#FECB39;}
	.st1{fill:#010202;}
	.st2{fill:#E5292C;}
	.st3{fill:#2CACE2;}
</style>
<metadata>
	<sfw  xmlns="&ns_sfw;">
		<slices></slices>
		<sliceSourceBounds  bottomLeftOrigin="true" height="396.9" width="540.6" x="433.8" y="181.1"></sliceSourceBounds>
	</sfw>
</metadata>
<g>
	<g>
		<g>
			<g>
				<path d="M113.2,326.7c-1.6,0.2-2.7-1-2.4-2.6l5.4-25.8c0.3-1.6,0-1.7-0.8-0.3l-14.3,27.6c-0.8,1.5-2.7,2.8-4.4,3l-10.9,1.3
					c-1.6,0.2-3.2-1-3.4-2.6L79,303.9c-0.2-1.6-0.7-1.6-1,0l-5.1,24.8c-0.3,1.6-1.9,3.1-3.6,3.3l-23.1,2.9c-1.6,0.2-2.7-1-2.4-2.6
					l11.6-55.7c0.3-1.6,1.9-3.1,3.6-3.3l32.7-4c1.6-0.2,3.1,1,3.3,2.6l2.6,22.8c0.2,1.6,0.9,1.8,1.7,0.3l12.9-25.7
					c0.7-1.5,2.7-2.8,4.3-3l33.2-4c1.6-0.2,2.7,1,2.4,2.6l-11.6,55.7c-0.3,1.6-1.9,3.1-3.6,3.3L113.2,326.7z"/>
			</g>
			<g>
				<path d="M203.9,315.7c-1.6,0.2-3.1-1-3.2-2.6l-0.1-1.7c-0.1-1.6-1.6-2.8-3.2-2.6l-14.1,1.7c-1.6,0.2-3.5,1.6-4.2,3.1l-1.3,2.8
					c-0.7,1.5-2.6,2.9-4.2,3.1l-25.5,3.1c-1.6,0.2-2.4-0.8-1.6-2.3l29.3-58.5c0.7-1.5,2.7-2.8,4.3-3l42.9-5.2c1.6-0.2,3.1,1,3.3,2.6
					l5.5,53.3c0.2,1.6-1,3.1-2.7,3.3L203.9,315.7z M198.5,276.3c-0.2-1.6-1-1.8-1.7-0.3l-7.8,14.9c-0.8,1.5,0,2.5,1.6,2.3l6.7-0.8
					c1.6-0.2,2.8-1.7,2.6-3.3L198.5,276.3z"/>
			</g>
			<g>
				<path d="M286.2,305.7c-1.6,0.2-2.7-1-2.4-2.6l2.7-13.2c0.3-1.6-0.7-2.8-2.4-2.6l-9.5,1.2c-1.6,0.2-3.3,1.7-3.6,3.3l-2.7,13.2
					c-0.3,1.6-1.9,3.1-3.6,3.3l-24.9,3c-1.6,0.2-2.7-1-2.4-2.6L249,253c0.3-1.6,1.9-3.1,3.6-3.3l24.9-3c1.6-0.2,2.7,1,2.4,2.6
					l-3.3,15.9c-0.3,1.6,0.7,2.8,2.4,2.6l9.5-1.2c1.6-0.2,3.3-1.7,3.6-3.3l3.3-15.9c0.3-1.6,1.9-3.1,3.6-3.3l24.9-3
					c1.6-0.2,2.7,1,2.4,2.6l-11.6,55.7c-0.3,1.6-1.9,3.1-3.6,3.3L286.2,305.7z"/>
			</g>
			<g>
				<path d="M330.4,300.3c-1.6,0.2-2.7-1-2.4-2.6l11.6-55.7c0.3-1.6,1.9-3.1,3.6-3.3l24.9-3c1.6-0.2,2.7,1,2.4,2.6L358.9,294
					c-0.3,1.6-1.9,3.1-3.6,3.3L330.4,300.3z"/>
			</g>
			<g>
				<path d="M423.3,289c-1.6,0.2-3.7-0.8-4.5-2.2l-12.2-19.9c-0.9-1.4-1.8-1.2-2.2,0.4l-4.5,21.7c-0.3,1.6-1.9,3.1-3.6,3.3
					l-23.2,2.8c-1.6,0.2-2.7-1-2.4-2.6l11.6-55.7c0.3-1.6,1.9-3.1,3.6-3.3l24.9-3c1.6-0.2,3.6,0.8,4.3,2.3l9.2,18.3
					c0.7,1.5,1.6,1.4,2-0.3l4.1-19.9c0.3-1.6,1.9-3.1,3.6-3.3l23.2-2.7c1.6-0.2,2.7,1,2.4,2.6L448,283.2c-0.3,1.6-1.9,3.1-3.6,3.3
					L423.3,289z"/>
			</g>
			<g>
				<path d="M511.6,278.3c-1.6,0.2-3.1-1-3.2-2.6l-0.1-1.7c-0.1-1.6-1.6-2.8-3.2-2.6l-14.1,1.7c-1.6,0.2-3.5,1.6-4.2,3.1l-1.3,2.8
					c-0.7,1.5-2.6,2.9-4.2,3.1l-25.5,3.1c-1.6,0.2-2.4-0.8-1.6-2.3l29.3-58.5c0.7-1.5,2.7-2.8,4.3-3l42.9-5.2c1.6-0.2,3.1,1,3.3,2.6
					l5.5,53.3c0.2,1.6-1,3.1-2.7,3.3L511.6,278.3z M506.2,238.9c-0.2-1.6-1-1.8-1.7-0.3l-7.8,14.9c-0.8,1.5,0,2.5,1.6,2.3l6.7-0.8
					c1.6-0.2,2.8-1.7,2.6-3.3L506.2,238.9z"/>
			</g>
			<g>
				<path d="M72.8,392.9c-1.6,0.2-3-0.6-3.1-1.8s-1.5-2-3.1-1.8l-5.4,0.7c-1.6,0.2-3.5,1.4-4,2.7c-0.6,1.3-2.4,2.5-4,2.7l-11.9,1.4
					c-1.6,0.2-2.4-0.8-1.6-2.3l15.4-30.8c0.7-1.5,2.7-2.8,4.3-3l21.7-2.6c1.6-0.2,3.1,1,3.3,2.6l2.9,27.6c0.2,1.6-1,3.1-2.7,3.3
					L72.8,392.9z M68.6,372c-0.2-1.6-1-1.8-1.7-0.3l-3.2,6.2c-0.8,1.5,0,2.5,1.6,2.3l1.2-0.2c1.6-0.2,2.8-1.7,2.6-3.3L68.6,372z"/>
			</g>
			<g>
				<path d="M129.1,382.7c-0.3,1.6-1.9,3.3-3.5,3.7c0,0-6.4,1.6-12.4,2.3c-9.4,1.1-14.2,0.7-17.5-1.8c-2.5-1.9-4-5.2-4-9.4
					c0-5.5,2.4-11.5,6.5-16c4.4-4.8,10.9-7.7,19.9-8.8c5.3-0.6,15-0.6,15-0.6c1.6,0,2.7,1.3,2.4,2.9l-1.6,7.8
					c-0.3,1.6-2,2.9-3.6,2.9c0,0-6-0.1-9.8,0.3c-4.5,0.5-7,1.5-8.6,3.2c-1.1,1.2-1.8,3.1-1.8,4.8c0,2.5,2.5,3.3,8.6,2.5
					c4.2-0.5,9.6-2.1,9.6-2.1c1.6-0.5,2.6,0.5,2.3,2.1L129.1,382.7z"/>
			</g>
			<g>
				<path d="M173.4,377.3c-0.3,1.6-1.9,3.3-3.5,3.7c0,0-6.4,1.6-12.4,2.3c-9.4,1.1-14.2,0.7-17.5-1.8c-2.5-1.9-4-5.2-4-9.4
					c0-5.5,2.4-11.5,6.5-16c4.4-4.8,10.9-7.7,19.9-8.8c5.3-0.6,15-0.6,15-0.6c1.6,0,2.7,1.3,2.4,2.9l-1.6,7.8
					c-0.3,1.6-2,2.9-3.6,2.9c0,0-6-0.1-9.8,0.3c-4.5,0.5-7,1.5-8.6,3.2c-1.1,1.2-1.8,3.1-1.8,4.8c0,2.5,2.5,3.3,8.6,2.5
					c4.2-0.5,9.6-2.1,9.6-2.1c1.6-0.5,2.6,0.5,2.3,2.1L173.4,377.3z"/>
			</g>
			<g>
				<path d="M180.8,379.7c-1.6,0.2-2.7-1-2.4-2.6l6-29c0.3-1.6,1.9-3.1,3.6-3.3l33-4c1.6-0.2,2.7,1,2.4,2.6l-1.1,5.3
					c-0.3,1.6-1.9,3.1-3.6,3.3l-15.6,1.9c-1.6,0.2-3.1,1.1-3.3,2s1,1.5,2.6,1.3l15.6-1.9c1.6-0.2,2.7,1,2.4,2.6l-0.5,2.5
					c-0.3,1.6-1.9,3.1-3.6,3.3l-15.6,1.9c-1.6,0.2-3.1,1-3.3,1.8s1,1.3,2.7,1.1l15.6-1.9c1.6-0.2,2.7,1,2.4,2.6l-0.7,3.3
					c-0.3,1.6-1.9,3.1-3.6,3.3L180.8,379.7z"/>
			</g>
			<g>
				<path d="M224.8,374.4c-1.6,0.2-2.7-1-2.4-2.6l6-29c0.3-1.6,1.9-3.1,3.6-3.3l11.5-1.4c1.6-0.2,2.7,1,2.4,2.6l-3.5,16.7
					c-0.3,1.6,0.7,2.8,2.4,2.6l8.9-1.1c1.6-0.2,2.7,1,2.4,2.6l-1.3,6.5c-0.3,1.6-1.9,3.1-3.6,3.3L224.8,374.4z"/>
			</g>
			<g>
				<path d="M261.6,369.9c-1.6,0.2-2.7-1-2.4-2.6l6-29c0.3-1.6,1.9-3.1,3.6-3.3l33-4c1.6-0.2,2.7,1,2.4,2.6l-1.1,5.3
					c-0.3,1.6-1.9,3.1-3.6,3.3l-15.6,1.9c-1.6,0.2-3.1,1.1-3.3,2s1,1.5,2.6,1.3l15.6-1.9c1.6-0.2,2.7,1,2.4,2.6l-0.5,2.5
					c-0.3,1.6-1.9,3.1-3.6,3.3l-15.6,1.9c-1.6,0.2-3.1,1-3.3,1.8s1,1.3,2.7,1.1l15.6-1.9c1.6-0.2,2.7,1,2.4,2.6l-0.7,3.3
					c-0.3,1.6-1.9,3.1-3.6,3.3L261.6,369.9z"/>
			</g>
			<g>
				<path d="M331.4,361.4c-1.6,0.2-3.7-0.8-4.5-2.2l-2.9-4.9c-0.8-1.4-1.8-1.3-2.2,0.4l-1.1,5.2c-0.3,1.6-2,3.1-3.6,3.3l-11.5,1.4
					c-1.6,0.2-2.7-1-2.4-2.6l6-29c0.3-1.6,1.9-3.1,3.6-3.3l26.8-3.3c1.6-0.2,4.3-0.4,6-0.4c0,0,3.4-0.1,5.2,1.3
					c1.4,1.1,2.2,3,2.2,5.3c0,3-1.4,6.1-3.8,8.7c-2.5,2.7-6.4,4-6.4,4c-1.6,0.5-2.1,2.1-1.2,3.5l5.4,8.1c0.9,1.4,0.3,2.7-1.3,2.9
					L331.4,361.4z M326.6,344.1c1.5-0.2,4-0.6,5.6-1c0,0,0.6-0.1,1.7-1.4c0.8-1,1.2-2.2,1.2-3.5c0-1.6-0.3-1.6-0.3-1.6
					c-1.6-0.1-4.3,0-6,0.2l-0.4,0.1c-1.6,0.2-3.3,1.7-3.6,3.3l-0.3,1.4C324.2,343.1,325.1,344.3,326.6,344.1z"/>
			</g>
			<g>
				<path d="M385.1,354.9c-1.6,0.2-3-0.6-3.1-1.8s-1.5-2-3.1-1.8l-5.4,0.7c-1.6,0.2-3.5,1.4-4,2.7s-2.4,2.5-4,2.7l-11.9,1.4
					c-1.6,0.2-2.4-0.8-1.6-2.3l15.4-30.8c0.7-1.5,2.7-2.8,4.3-3l21.7-2.6c1.6-0.2,3.1,1,3.3,2.6l2.9,27.6c0.2,1.6-1,3.1-2.7,3.3
					L385.1,354.9z M380.9,334c-0.2-1.6-1-1.8-1.7-0.3l-3.2,6.2c-0.8,1.5,0,2.5,1.6,2.3l1.2-0.2c1.6-0.2,2.8-1.7,2.6-3.3L380.9,334z"
					/>
			</g>
			<g>
				<path d="M411.1,351.7c-1.6,0.2-2.7-1-2.4-2.6l3.1-15.2c0.3-1.6-0.7-2.8-2.4-2.6l-4.2,0.6c-1.6,0.2-2.7-1-2.4-2.6l1.6-8
					c0.3-1.6,1.9-3.1,3.6-3.3l32-3.9c1.6-0.2,2.7,1,2.4,2.6l-1.6,8c-0.3,1.6-1.9,3.1-3.6,3.3l-4.3,0.5c-1.6,0.2-3.3,1.7-3.6,3.3
					l-3.1,15.2c-0.3,1.6-1.9,3.1-3.6,3.3L411.1,351.7z"/>
			</g>
			<g>
				<path d="M489.1,320.3c0,6.1-2.4,12.6-6.4,17.1c-4.3,4.9-11.7,8-21.5,9.2c-9,1.1-15.4-2.3-15.4-2.3c-1.5-0.8-3.3-2.6-4-4.1
					c0,0-0.6-1.3-0.6-4.3c0-6.4,2.6-13.1,6.8-17.4c4.4-4.6,11.8-7.7,21.1-8.8C482.4,308.1,489.1,311.5,489.1,320.3z M460.4,325.6
					c-0.9,1.6-1.6,4.5-1.6,6.7c0,3.2,1.5,4.6,4.5,4.2c2.8-0.3,4.4-2.4,4.4-2.4c1-1.3,2.3-3.7,2.8-5.2c0,0,0.7-1.9,0.7-3.6
					c0-2.8-1.7-4.1-4.8-3.7C463.8,321.9,461.7,323.3,460.4,325.6z"/>
			</g>
			<g>
				<path d="M519,338.6c-1.6,0.2-3.7-0.8-4.5-2.2l-2.9-4.9c-0.8-1.4-1.8-1.3-2.2,0.4l-1.1,5.2c-0.3,1.6-2,3.1-3.6,3.3l-11.5,1.4
					c-1.6,0.2-2.7-1-2.4-2.6l6-29c0.3-1.6,1.9-3.1,3.6-3.3l26.8-3.3c1.6-0.2,4.3-0.4,6-0.4c0,0,3.4-0.1,5.2,1.3
					c1.4,1.1,2.2,3,2.2,5.3c0,3-1.4,6.1-3.8,8.7c-2.5,2.7-6.4,4-6.4,4c-1.6,0.5-2.1,2.1-1.2,3.5l5.4,8.1c0.9,1.4,0.3,2.7-1.3,2.9
					L519,338.6z M514.1,321.3c1.5-0.2,4-0.6,5.6-1c0,0,0.6-0.1,1.7-1.4c0.8-1,1.2-2.2,1.2-3.5c0-1.6-0.3-1.6-0.3-1.6
					c-1.6-0.1-4.3,0-6,0.2l-0.4,0.1c-1.6,0.2-3.3,1.7-3.6,3.3l-0.3,1.4C511.7,320.3,512.7,321.5,514.1,321.3z"/>
			</g>
		</g>
	</g>
</g>
<g>
	<path class="st0" d="M344.2,33.3c30.5-14.8,67.4-2.7,83.2,27.5s4.6,67.4-25,84c12.2,0.5,24.6-2.1,36.2-8.2
		c35.5-18.5,49.2-62.3,30.7-97.7C450.8,3.4,407-10.3,371.6,8.2C360,14.4,350.8,23.1,344.2,33.3z"/>
	<g>
		<g>
			<path class="st1" d="M199.1,175.9c-0.5,0.2-1,0.4-1.4,0.6c-23.6,12.2-47.1,24.5-70.7,36.7c-1.1,0.6-2.2,1.1-3.4,1.3
				c-4.5,0.9-8.3-0.2-11.2-3.8c-3.9-4.8-3-11.7,1.7-15.4c0.8-0.6,1.7-1.2,2.6-1.6c23.6-12.3,47.2-24.5,70.8-36.8
				c0.5-0.2,0.9-0.5,1.3-0.8c1-0.5,1.9-0.9,2.9-1.4c3.3-1.7,6.4-3.6,9.5-5.6c2.2-1.4,4.3-3,6.5-4.5c2.6-1.8,5.3-3.6,7.9-5.5
				c2.6-1.8,5.2-3.5,8-5c4.9-2.6,9.9-4.6,15.2-6.2c1.4-0.4,2.9-0.8,4.4-1.2c7.7,14.7,15.3,29.5,23,44.2c0.5,1,1,1.9,1.5,2.9
				c-3.1,2.7-6.3,5.1-9.7,7.3c-4.5,2.9-9.1,5.5-14.1,7.3c-4.9,1.8-9.7,3.6-14.6,5.4c-4.3,1.6-8.5,3.2-12.5,5.3
				c-1.5,0.8-2.9,1.5-4.4,2.3c-0.5,0.2-1,0.4-1.4,0.6c-23.6,12.2-47.1,24.4-70.7,36.7c-1.3,0.7-2.6,1.3-4,1.5
				c-5.1,0.9-9.8-1.8-11.8-5.8c-2.1-4-1.5-9.2,2.1-12.9c0.9-1,2-1.7,3.3-2.3c23.6-12.3,47.3-24.5,70.9-36.8c0.5-0.2,0.9-0.5,1.3-0.8
				c0.2-0.1,0.4-0.2,0.6-0.3c1.5-0.9,2.9-1.8,4.4-2.8c2.2-1.4,4.5-2.8,6.7-4.2c3.1-1.9,6.1-3.9,9.2-5.8c3.2-2,6.4-4,9.6-6
				c0.8-0.5,1.6-1,2.4-1.5c0.1,0,0.1-0.1,0.2-0.1c-0.1,0-0.2,0-0.3,0s-0.3,0.1-0.4,0.1c-1.6,0.7-3.3,1.3-4.9,2
				c-2.3,1-4.6,1.9-6.9,2.9c-3.6,1.5-7.2,3-10.9,4.5c-2.4,1-4.9,2-7.3,3C202.7,174.3,200.9,175.1,199.1,175.9z"/>
		</g>
		<g>
			<path class="st1" d="M320.8,128.8c-1.9-1.6-3.8-3.2-5.2-5.3c-1.1-1.5-2-3-2.8-4.8c-1-2.4-1.6-4.8-1.9-7.3
				c-0.1-0.7-0.1-1.4-0.2-2.1c0.3-0.1,0.7-0.2,1-0.3c0.6,1.1,1.2,2.1,1.8,3.2c0.2,0.4,0.4,0.8,0.6,1.1c0,0.1,0.2,0.1,0.2,0.1
				c0.1,0,0.1-0.1,0.1-0.2c-0.1-1.3-0.4-2.6-0.4-3.8c0-7.3,2.8-13.3,8.7-17.7c9.5-7.1,22.6-5.3,29.8,3.8c7.5,9.4,5.5,22.5-2.9,29.6
				c-9.2,7.8-21.9,6.5-29.3-0.9c-0.2-0.2-0.4-0.4-0.5-0.5c0,0-0.2-0.1-0.2,0l-0.1,0.2c0.4,0.8,0.9,1.7,1.3,2.5
				c0.3,0.6,0.6,1.2,0.9,1.9C321.4,128.4,321.1,128.6,320.8,128.8z"/>
		</g>
		<g>
			<path class="st1" d="M302.4,78.9c2.5,4.7,7.9,14.5,8,14.7c0.6-0.3,4.7-2.4,6.2-3.2c9.4-4.9,34.2-17.7,37.1-19.2
				c3.6-1.9,5.4-5.4,4.7-9.4c-0.7-4.4-4.5-7.3-8.6-7.4c-1.6,0-3.1,0.4-4.5,1.1c-9.5,5.1-19,10.3-28.4,15.4
				C312.4,73.5,302.7,78.7,302.4,78.9z"/>
		</g>
		<path class="st2" d="M273.5,110.8c0.7-0.2,1.3-0.4,2-0.6c1.6-0.3,3.1-0.8,4.7-0.8c0.2,0,0.4,0,0.6,0c0.2,0,0.4,0,0.6,0.1
			c-0.2,0.1-0.4,0.2-0.6,0.3c-3.1,1.2-5.6,3.2-7.6,5.8c-0.5,0.6-1,1.3-1.4,2c-0.9,1.4-2.1,2.4-3.4,3.3c-2.2,1.4-4.6,2.1-7.1,2.5
			c-5.8,0.8-11.7,1.6-17.4,3.3c-0.2,0.1-0.5,0.2-0.7,0.3c-1.5,0.4-2.9,0.7-4.4,1.2c-5.2,1.6-10.3,3.7-15.2,6.2c-2.8,1.5-5.4,3.2-8,5
			s-5.2,3.6-7.9,5.5c-2.2,1.5-4.3,3-6.5,4.5c-3.1,2-6.2,3.9-9.5,5.6c-1,0.5-1.9,1-2.9,1.4c-2.4-4.6-4.7-9.1-7.1-13.7
			c0-0.1-0.1-0.2-0.1-0.2c-0.2-0.5-0.2-0.6,0.3-0.8c1.1-0.4,2.2-0.7,3.3-1.1c2.9-1,5.8-1.9,8.7-2.9s5.7-1.9,8.6-2.9
			c3.5-1.2,7-2.3,10.6-3.5c3.4-1.1,6.9-2.3,10.3-3.4c3.4-1.1,6.8-2.3,10.2-3.4c3.9-1.3,7.9-2.6,11.8-3.9c3.4-1.1,6.8-2.3,10.2-3.4
			c3.9-1.3,7.9-2.6,11.8-3.9C269.3,112.3,271.4,111.5,273.5,110.8z"/>
		<path class="st2" d="M199.1,175.9c1.8-0.8,3.5-1.6,5.3-2.3c2.4-1,4.9-2,7.3-3c3.6-1.5,7.2-3,10.9-4.5c2.3-1,4.6-2,6.9-2.9
			c1.6-0.7,3.3-1.3,4.9-2c0.1,0,0.2-0.1,0.4-0.1c0.1,0,0.2,0,0.3,0c-0.1,0-0.1,0.1-0.2,0.1c-0.8,0.5-1.6,1-2.4,1.5
			c-3.2,2-6.4,4-9.6,6c-3.1,1.9-6.1,3.9-9.2,5.8c-2.2,1.4-4.5,2.8-6.7,4.2c-1.5,0.9-2.9,1.8-4.4,2.8c-0.2,0.1-0.4,0.2-0.6,0.3
			C201.1,179.7,200.1,177.8,199.1,175.9z"/>
		<path class="st3" d="M313.5,120.1L313.5,120.1c-0.2-0.5-0.5-0.9-0.7-1.4c-1-2.4-1.6-4.8-1.9-7.3c-0.1-0.7-0.1-1.4-0.2-2.1
			c-0.6,0.1-1.1,0.2-1.7,0.3c-1.3,0.2-2.1-0.6-1.8-1.9c0.4-1.7,0.8-3.3,1.2-5c-0.2-0.4-0.3-0.9-0.5-1.3c-0.8-1.5-2.6-3.6-2.4-4.5
			c0.2-0.9,3.7-2.5,5.1-3.3c-0.1-0.2-5.5-10-8-14.7c-2.7,1.4-10.2,5.5-16,8.6c-12.9,6.7-0.3,18.9-5,21.9c-0.4,0.2-0.4,0.2-0.6,0.3
			c-3.1,1.2-5.6,3.2-7.6,5.8c-0.5,0.6-1,1.3-1.4,2c-0.9,1.4-2.1,2.4-3.4,3.3c-2.2,1.4-4.6,2.1-7.1,2.5c-5.8,0.8-11.7,1.6-17.4,3.3
			c-0.2,0.1-0.5,0.2-0.7,0.3c2,3.9,7.2,13.8,12.3,23.6"/>
		<g>
			<path class="st1" d="M340.8,152.9c-2.4-4.8-7.3-14.8-7.4-15.1c0.6-0.3,4.7-2.5,6.2-3.2c9.4-4.9,34.1-17.8,37.1-19.3
				c3.6-1.8,7.5-1.3,10.4,1.5c3.2,3.2,3.4,7.9,1.1,11.3c-0.9,1.3-2.1,2.3-3.5,3c-9.7,4.8-19.3,9.6-29,14.4
				C351,147.9,341.1,152.8,340.8,152.9z"/>
		</g>
		<path class="st3" d="M313.5,120.1L313.5,120.1c0.2,0.5,0.5,0.9,0.8,1.4c1.4,2.2,3,4.1,4.9,5.8c0.5,0.5,1.1,0.9,1.6,1.3
			c-0.4,0.4-0.8,0.8-1.2,1.2c-0.9,1-0.7,2.1,0.5,2.6c1.6,0.7,3.2,1.3,4.8,1.9c0.3,0.4,0.6,0.8,0.8,1.2c0.8,1.5,1.5,4.2,2.3,4.6
			s4.1-1.6,5.6-2.2c0.1,0.2,5,10.3,7.4,15.1c-2.8,1.4-10.4,5.2-16.2,8.2c-12.9,6.7-15.7-10.6-20.8-8.5c-0.4,0.2-0.4,0.2-0.6,0.3
			c-2.8,1.8-5.8,2.7-9.1,2.9c-0.8,0-1.6,0-2.5,0c-1.6-0.1-3.2,0.3-4.7,0.9c-2.4,0.9-4.3,2.5-6.1,4.4c-4,4.3-8,8.6-12.7,12.3
			c-0.2,0.2-0.4,0.3-0.7,0.4c-2-3.9-7.1-13.8-12.3-23.6"/>
		<path class="st2" d="M298.1,158.2c0.5-0.4,1.1-0.9,1.6-1.3c1.1-1.1,2.4-2,3.4-3.4c0.1-0.2,0.3-0.3,0.4-0.5
			c0.1-0.2,0.2-0.4,0.3-0.6c-0.2,0.1-0.4,0.2-0.6,0.3c-2.8,1.8-5.8,2.7-9.1,2.9c-0.8,0-1.6,0-2.5,0c-1.6-0.1-3.2,0.3-4.7,0.9
			c-2.4,0.9-4.3,2.5-6.1,4.4c-4,4.3-8,8.6-12.7,12.3c-0.2,0.2-0.4,0.3-0.7,0.4c-1.1,1-2.3,2-3.5,2.9c-4.4,3.3-8.9,6.3-13.8,8.8
			c-2.8,1.4-5.7,2.6-8.7,3.7s-6,2.2-9,3.3c-2.5,0.9-4.9,1.8-7.4,2.8c-3.4,1.4-6.8,2.8-10,4.6c-1,0.5-1.9,1-2.8,1.5
			c2.4,4.6,4.7,9.1,7.1,13.7c0,0.1,0.1,0.2,0.1,0.2c0.3,0.5,0.4,0.5,0.8,0.2c0.9-0.7,1.9-1.4,2.8-2.1c2.5-1.8,4.9-3.6,7.4-5.5
			c2.4-1.8,4.9-3.6,7.3-5.4c3-2.2,6-4.4,8.9-6.6s5.8-4.3,8.7-6.5c2.9-2.1,5.8-4.2,8.7-6.3c3.3-2.5,6.6-4.9,10-7.4
			c2.9-2.1,5.8-4.2,8.7-6.3c3.3-2.5,6.6-4.9,10-7.4C294.5,160.7,296.3,159.5,298.1,158.2z"/>
		<path class="st2" d="M311.7,109c-0.3,0.1-0.7,0.2-1,0.3c-0.6,0.1-1.1,0.2-1.7,0.3c-1.3,0.2-2.1-0.6-1.8-1.9c0.4-1.7,0.8-3.3,1.2-5
			C309.5,104.8,310.6,106.9,311.7,109z"/>
		<path class="st2" d="M321.5,128c-0.3,0.2-0.6,0.4-0.8,0.6c-0.4,0.4-0.8,0.8-1.2,1.2c-0.9,1-0.7,2.1,0.5,2.6
			c1.6,0.7,3.2,1.3,4.8,1.9C323.7,132.2,322.6,130.1,321.5,128z"/>
	</g>
</g>
<path class="st1" d="M101.1,236.7c-12.7,6.3-25.2,13-37.1,20.5s-23.4,15.7-33.4,25.2c-2.5,2.4-4.9,4.9-7.2,7.4
	c-2.2,2.6-4.4,5.2-6.3,8c-3.8,5.5-6.8,11.5-7.8,17.6c-1.1,6.1,0.1,12.2,3.7,17.2c3.5,5,9.2,8.7,15.4,11.1c6.2,2.4,13,3.6,19.9,3.8
	c3.4,0.1,6.9,0,10.3-0.3c3.5-0.4,7.1-0.8,10.7-1.3l42.8-5.1l85.6-10.2l342.2-40.8l-341.7,45.3l-85.4,11.3l-42.7,5.7l-10.7,1.4
	c-3.7,0.5-7.4,0.7-11.2,0.7c-7.5,0-15.1-1-22.4-3.5c-3.6-1.3-7.2-2.9-10.5-5.1c-3.3-2.2-6.4-4.8-9-8.1c-1.3-1.6-2.4-3.4-3.3-5.3
	c-0.9-1.9-1.6-3.9-2.1-5.9s-0.8-4.1-0.9-6.2c0-2.1,0-4.2,0.3-6.2c0.5-4,1.7-7.9,3.2-11.5s3.4-7,5.4-10.3c2.1-3.2,4.3-6.3,6.7-9.2
	c2.4-2.9,4.9-5.7,7.5-8.3c10.4-10.6,22.1-19.7,34.2-27.9c12.1-8.3,24.7-15.6,37.5-22.6c3.4-1.8,7.6-0.6,9.5,2.8s0.6,7.6-2.8,9.5
	C101.2,236.6,101.2,236.7,101.1,236.7L101.1,236.7z"/>
</svg>
